<svg width="18" height="18" viewBox="0 0 18 18" fill="none" xmlns="http://www.w3.org/2000/svg">
<circle cx="9" cy="9" r="9" fill="#27A891"/>
<path d="M4.9424 8.29296C4.55187 7.90244 3.91871 7.90244 3.52818 8.29296C3.13766 8.68349 3.13766 9.31665 3.52818 9.70718L4.9424 8.29296ZM7.94117 12.706L7.23407 13.4131C7.43103 13.61 7.70121 13.7159 7.97955 13.7052C8.25789 13.6945 8.51916 13.5682 8.70043 13.3567L7.94117 12.706ZM15.0534 5.94498C15.4128 5.52566 15.3642 4.89436 14.9449 4.53493C14.5256 4.17551 13.8943 4.22407 13.5349 4.6434L15.0534 5.94498ZM3.52818 9.70718L7.23407 13.4131L8.64828 11.9988L4.9424 8.29296L3.52818 9.70718ZM8.70043 13.3567L15.0534 5.94498L13.5349 4.6434L7.18192 12.0552L8.70043 13.3567Z" fill="white"/>
</svg>
