<svg width="16" height="16" viewBox="0 0 16 16" fill="none" xmlns="http://www.w3.org/2000/svg">
<rect x="0.5" y="0.5" width="15" height="15" rx="4.5" fill="#1AA1CC" stroke="#1AA1CC"/>
<path d="M4.70711 7.79289C4.31658 7.40237 3.68342 7.40237 3.29289 7.79289C2.90237 8.18342 2.90237 8.81658 3.29289 9.20711L4.70711 7.79289ZM7 11.5L6.29289 12.2071C6.49064 12.4049 6.76215 12.5108 7.04156 12.4991C7.32097 12.4875 7.58275 12.3594 7.76339 12.1459L7 11.5ZM13.2634 5.64594C13.6201 5.22434 13.5675 4.59336 13.1459 4.23661C12.7243 3.87987 12.0934 3.93245 11.7366 4.35406L13.2634 5.64594ZM3.29289 9.20711L6.29289 12.2071L7.70711 10.7929L4.70711 7.79289L3.29289 9.20711ZM7.76339 12.1459L13.2634 5.64594L11.7366 4.35406L6.23661 10.8541L7.76339 12.1459Z" fill="white"/>
</svg>
