<svg width="21" height="21" viewBox="0 0 21 21" fill="none" xmlns="http://www.w3.org/2000/svg">
<circle cx="10.5" cy="10.5" r="8.5" fill="#27A891"/>
<path d="M6.70711 10.2929C6.31658 9.90237 5.68342 9.90237 5.29289 10.2929C4.90237 10.6834 4.90237 11.3166 5.29289 11.7071L6.70711 10.2929ZM9.5 14.5L8.79289 15.2071C8.98985 15.4041 9.26004 15.51 9.53838 15.4993C9.81672 15.4886 10.078 15.3623 10.2593 15.1508L9.5 14.5ZM16.2593 8.15079C16.6187 7.73147 16.5701 7.10017 16.1508 6.74074C15.7315 6.38132 15.1002 6.42988 14.7407 6.84921L16.2593 8.15079ZM5.29289 11.7071L8.79289 15.2071L10.2071 13.7929L6.70711 10.2929L5.29289 11.7071ZM10.2593 15.1508L16.2593 8.15079L14.7407 6.84921L8.74074 13.8492L10.2593 15.1508Z" fill="white"/>
<circle cx="10.5" cy="10.5" r="10" stroke="#27A891"/>
</svg>
