<svg width="14" height="16" viewBox="0 0 14 16" fill="none" xmlns="http://www.w3.org/2000/svg">
<path d="M13 3.72222L7 1L1 3.72222V7.06479C1 8.18733 1.29295 9.29043 1.84988 10.2651C2.60666 11.5894 3.65542 12.7238 4.91644 13.582L7 15L8.58209 13.9746C9.91074 13.1134 11.0314 11.9677 11.8629 10.6203C12.6063 9.41572 13 8.02813 13 6.61263V3.72222Z" fill="#737373" stroke="#737373"/>
<path d="M4.54855 7.2527L4.19005 6.90416L3.49298 7.62115L3.85147 7.96969L4.54855 7.2527ZM6.60001 9.94453L6.25147 10.303C6.34776 10.3966 6.47766 10.4476 6.61192 10.4444C6.74618 10.4412 6.8735 10.3841 6.96522 10.286L6.60001 9.94453ZM10.9652 6.00824L11.3067 5.64303L10.5763 4.96004L10.2348 5.32525L10.9652 6.00824ZM3.85147 7.96969L6.25147 10.303L6.94855 9.58603L4.54855 7.2527L3.85147 7.96969ZM6.96522 10.286L10.9652 6.00824L10.2348 5.32525L6.2348 9.60303L6.96522 10.286Z" fill="white"/>
</svg>
