<svg width="105" height="42" viewBox="0 0 105 42" fill="none" xmlns="http://www.w3.org/2000/svg">
<path d="M12.2517 21.025C12.2517 19.625 12.5267 18.3833 13.0767 17.3C13.6433 16.2167 14.4017 15.3833 15.3517 14.8C16.3183 14.2167 17.3933 13.925 18.5767 13.925C19.61 13.925 20.51 14.1333 21.2767 14.55C22.06 14.9667 22.685 15.4917 23.1517 16.125V14.15H26.6767V28H23.1517V25.975C22.7017 26.625 22.0767 27.1667 21.2767 27.6C20.4933 28.0167 19.585 28.225 18.5517 28.225C17.385 28.225 16.3183 27.925 15.3517 27.325C14.4017 26.725 13.6433 25.8833 13.0767 24.8C12.5267 23.7 12.2517 22.4417 12.2517 21.025ZM23.1517 21.075C23.1517 20.225 22.985 19.5 22.6517 18.9C22.3183 18.2833 21.8683 17.8167 21.3017 17.5C20.735 17.1667 20.1267 17 19.4767 17C18.8267 17 18.2267 17.1583 17.6767 17.475C17.1267 17.7917 16.6767 18.2583 16.3267 18.875C15.9933 19.475 15.8267 20.1917 15.8267 21.025C15.8267 21.8583 15.9933 22.5917 16.3267 23.225C16.6767 23.8417 17.1267 24.3167 17.6767 24.65C18.2433 24.9833 18.8433 25.15 19.4767 25.15C20.1267 25.15 20.735 24.9917 21.3017 24.675C21.8683 24.3417 22.3183 23.875 22.6517 23.275C22.985 22.6583 23.1517 21.925 23.1517 21.075ZM31.87 12.5C31.2534 12.5 30.7367 12.3083 30.32 11.925C29.92 11.525 29.72 11.0333 29.72 10.45C29.72 9.86667 29.92 9.38333 30.32 9C30.7367 8.6 31.2534 8.4 31.87 8.4C32.4867 8.4 32.995 8.6 33.395 9C33.8117 9.38333 34.02 9.86667 34.02 10.45C34.02 11.0333 33.8117 11.525 33.395 11.925C32.995 12.3083 32.4867 12.5 31.87 12.5ZM33.595 14.15V28H30.095V14.15H33.595ZM40.553 16.3C41.003 15.5667 41.5864 14.9917 42.303 14.575C43.0364 14.1583 43.8697 13.95 44.803 13.95V17.625H43.878C42.778 17.625 41.9447 17.8833 41.378 18.4C40.828 18.9167 40.553 19.8167 40.553 21.1V28H37.053V14.15H40.553V16.3Z" fill="#2B7B95"/>
<path d="M52.4604 28.225C51.3271 28.225 50.3104 28.025 49.4104 27.625C48.5104 27.2083 47.7938 26.65 47.2604 25.95C46.7438 25.25 46.4604 24.475 46.4104 23.625H49.9354C50.0021 24.1583 50.2604 24.6 50.7104 24.95C51.1771 25.3 51.7521 25.475 52.4354 25.475C53.1021 25.475 53.6188 25.3417 53.9854 25.075C54.3688 24.8083 54.5604 24.4667 54.5604 24.05C54.5604 23.6 54.3271 23.2667 53.8604 23.05C53.4104 22.8167 52.6854 22.5667 51.6854 22.3C50.6521 22.05 49.8021 21.7917 49.1354 21.525C48.4854 21.2583 47.9188 20.85 47.4354 20.3C46.9688 19.75 46.7354 19.0083 46.7354 18.075C46.7354 17.3083 46.9521 16.6083 47.3854 15.975C47.8354 15.3417 48.4688 14.8417 49.2854 14.475C50.1188 14.1083 51.0938 13.925 52.2104 13.925C53.8604 13.925 55.1771 14.3417 56.1604 15.175C57.1438 15.9917 57.6854 17.1 57.7854 18.5H54.4354C54.3854 17.95 54.1521 17.5167 53.7354 17.2C53.3354 16.8667 52.7938 16.7 52.1104 16.7C51.4771 16.7 50.9854 16.8167 50.6354 17.05C50.3021 17.2833 50.1354 17.6083 50.1354 18.025C50.1354 18.4917 50.3688 18.85 50.8354 19.1C51.3021 19.3333 52.0271 19.575 53.0104 19.825C54.0104 20.075 54.8354 20.3333 55.4854 20.6C56.1354 20.8667 56.6938 21.2833 57.1604 21.85C57.6438 22.4 57.8938 23.1333 57.9104 24.05C57.9104 24.85 57.6854 25.5667 57.2354 26.2C56.8021 26.8333 56.1688 27.3333 55.3354 27.7C54.5188 28.05 53.5604 28.225 52.4604 28.225ZM66.9335 28.225C65.6002 28.225 64.4002 27.9333 63.3335 27.35C62.2668 26.75 61.4252 25.9083 60.8085 24.825C60.2085 23.7417 59.9085 22.4917 59.9085 21.075C59.9085 19.6583 60.2168 18.4083 60.8335 17.325C61.4668 16.2417 62.3252 15.4083 63.4085 14.825C64.4918 14.225 65.7002 13.925 67.0335 13.925C68.3668 13.925 69.5752 14.225 70.6585 14.825C71.7418 15.4083 72.5918 16.2417 73.2085 17.325C73.8418 18.4083 74.1585 19.6583 74.1585 21.075C74.1585 22.4917 73.8335 23.7417 73.1835 24.825C72.5502 25.9083 71.6835 26.75 70.5835 27.35C69.5002 27.9333 68.2835 28.225 66.9335 28.225ZM66.9335 25.175C67.5668 25.175 68.1585 25.025 68.7085 24.725C69.2752 24.4083 69.7252 23.9417 70.0585 23.325C70.3918 22.7083 70.5585 21.9583 70.5585 21.075C70.5585 19.7583 70.2085 18.75 69.5085 18.05C68.8252 17.3333 67.9835 16.975 66.9835 16.975C65.9835 16.975 65.1418 17.3333 64.4585 18.05C63.7918 18.75 63.4585 19.7583 63.4585 21.075C63.4585 22.3917 63.7835 23.4083 64.4335 24.125C65.1002 24.825 65.9335 25.175 66.9335 25.175ZM83.0759 17.025H80.6509V28H77.1009V17.025H75.5259V14.15H77.1009V13.45C77.1009 11.75 77.5842 10.5 78.5509 9.7C79.5175 8.9 80.9759 8.525 82.9259 8.575V11.525C82.0759 11.5083 81.4842 11.65 81.1509 11.95C80.8175 12.25 80.6509 12.7917 80.6509 13.575V14.15H83.0759V17.025ZM89.419 17.025V23.725C89.419 24.1917 89.5274 24.5333 89.744 24.75C89.9774 24.95 90.3607 25.05 90.894 25.05H92.519V28H90.319C87.369 28 85.894 26.5667 85.894 23.7V17.025H84.244V14.15H85.894V10.725H89.419V14.15H92.519V17.025H89.419Z" fill="#1AA1CC"/>
<path d="M14 31H19.5M25.5 31H37M44 31H90M55.5 35H79M48 38.5H87.5" stroke="#AAF0FF" stroke-width="5" stroke-linecap="round"/>
</svg>
