<svg width="274" height="120" viewBox="0 0 274 120" fill="none" xmlns="http://www.w3.org/2000/svg">
<path d="M105.812 74.84C105.812 72.6 106.252 70.6133 107.132 68.88C108.039 67.1467 109.252 65.8133 110.772 64.88C112.319 63.9467 114.039 63.48 115.932 63.48C117.586 63.48 119.026 63.8133 120.252 64.48C121.506 65.1467 122.506 65.9867 123.252 67V63.84H128.892V86H123.252V82.76C122.532 83.8 121.532 84.6667 120.252 85.36C118.999 86.0267 117.546 86.36 115.892 86.36C114.026 86.36 112.319 85.88 110.772 84.92C109.252 83.96 108.039 82.6133 107.132 80.88C106.252 79.12 105.812 77.1067 105.812 74.84ZM123.252 74.92C123.252 73.56 122.986 72.4 122.452 71.44C121.919 70.4533 121.199 69.7067 120.292 69.2C119.386 68.6667 118.412 68.4 117.372 68.4C116.332 68.4 115.372 68.6533 114.492 69.16C113.612 69.6667 112.892 70.4133 112.332 71.4C111.799 72.36 111.532 73.5067 111.532 74.84C111.532 76.1733 111.799 77.3467 112.332 78.36C112.892 79.3467 113.612 80.1067 114.492 80.64C115.399 81.1733 116.359 81.44 117.372 81.44C118.412 81.44 119.386 81.1867 120.292 80.68C121.199 80.1467 121.919 79.4 122.452 78.44C122.986 77.4533 123.252 76.28 123.252 74.92ZM137.202 61.2C136.215 61.2 135.388 60.8933 134.722 60.28C134.082 59.64 133.762 58.8533 133.762 57.92C133.762 56.9867 134.082 56.2133 134.722 55.6C135.388 54.96 136.215 54.64 137.202 54.64C138.188 54.64 139.002 54.96 139.642 55.6C140.308 56.2133 140.642 56.9867 140.642 57.92C140.642 58.8533 140.308 59.64 139.642 60.28C139.002 60.8933 138.188 61.2 137.202 61.2ZM139.962 63.84V86H134.362V63.84H139.962ZM151.094 67.28C151.814 66.1067 152.748 65.1867 153.894 64.52C155.068 63.8533 156.401 63.52 157.894 63.52V69.4H156.414C154.654 69.4 153.321 69.8133 152.414 70.64C151.534 71.4667 151.094 72.9067 151.094 74.96V86H145.494V63.84H151.094V67.28ZM170.146 86.36C168.333 86.36 166.706 86.04 165.266 85.4C163.826 84.7333 162.68 83.84 161.826 82.72C161 81.6 160.546 80.36 160.466 79H166.106C166.213 79.8533 166.626 80.56 167.346 81.12C168.093 81.68 169.013 81.96 170.106 81.96C171.173 81.96 172 81.7467 172.586 81.32C173.2 80.8933 173.506 80.3467 173.506 79.68C173.506 78.96 173.133 78.4267 172.386 78.08C171.666 77.7067 170.506 77.3067 168.906 76.88C167.253 76.48 165.893 76.0667 164.826 75.64C163.786 75.2133 162.88 74.56 162.106 73.68C161.36 72.8 160.986 71.6133 160.986 70.12C160.986 68.8933 161.333 67.7733 162.026 66.76C162.746 65.7467 163.76 64.9467 165.066 64.36C166.4 63.7733 167.96 63.48 169.746 63.48C172.386 63.48 174.493 64.1467 176.066 65.48C177.64 66.7867 178.506 68.56 178.666 70.8H173.306C173.226 69.92 172.853 69.2267 172.186 68.72C171.546 68.1867 170.68 67.92 169.586 67.92C168.573 67.92 167.786 68.1067 167.226 68.48C166.693 68.8533 166.426 69.3733 166.426 70.04C166.426 70.7867 166.8 71.36 167.546 71.76C168.293 72.1333 169.453 72.52 171.026 72.92C172.626 73.32 173.946 73.7333 174.986 74.16C176.026 74.5867 176.92 75.2533 177.666 76.16C178.44 77.04 178.84 78.2133 178.866 79.68C178.866 80.96 178.506 82.1067 177.786 83.12C177.093 84.1333 176.08 84.9333 174.746 85.52C173.44 86.08 171.906 86.36 170.146 86.36ZM193.303 86.36C191.17 86.36 189.25 85.8933 187.543 84.96C185.836 84 184.49 82.6533 183.503 80.92C182.543 79.1867 182.063 77.1867 182.063 74.92C182.063 72.6533 182.556 70.6533 183.543 68.92C184.556 67.1867 185.93 65.8533 187.663 64.92C189.396 63.96 191.33 63.48 193.463 63.48C195.596 63.48 197.53 63.96 199.263 64.92C200.996 65.8533 202.356 67.1867 203.343 68.92C204.356 70.6533 204.863 72.6533 204.863 74.92C204.863 77.1867 204.343 79.1867 203.303 80.92C202.29 82.6533 200.903 84 199.143 84.96C197.41 85.8933 195.463 86.36 193.303 86.36ZM193.303 81.48C194.316 81.48 195.263 81.24 196.143 80.76C197.05 80.2533 197.77 79.5067 198.303 78.52C198.836 77.5333 199.103 76.3333 199.103 74.92C199.103 72.8133 198.543 71.2 197.423 70.08C196.33 68.9333 194.983 68.36 193.383 68.36C191.783 68.36 190.436 68.9333 189.343 70.08C188.276 71.2 187.743 72.8133 187.743 74.92C187.743 77.0267 188.263 78.6533 189.303 79.8C190.37 80.92 191.703 81.48 193.303 81.48ZM219.131 68.44H215.251V86H209.571V68.44H207.051V63.84H209.571V62.72C209.571 60 210.344 58 211.891 56.72C213.438 55.44 215.771 54.84 218.891 54.92V59.64C217.531 59.6133 216.584 59.84 216.051 60.32C215.518 60.8 215.251 61.6667 215.251 62.92V63.84H219.131V68.44ZM229.28 68.44V79.16C229.28 79.9067 229.453 80.4533 229.8 80.8C230.173 81.12 230.787 81.28 231.64 81.28H234.24V86H230.72C226 86 223.64 83.7067 223.64 79.12V68.44H221V63.84H223.64V58.36H229.28V63.84H234.24V68.44H229.28Z" fill="white"/>
<path d="M3 92H11.5M19 92H29.5M39.5 92H210M218.5 92H231M238 92H242.5" stroke="white" stroke-width="5" stroke-linecap="round"/>
<path d="M75 101H96.5M105.5 101H164M174.5 101H197M121 105H148M109.5 109H155.5M75 77.5H61.5M80 67.5H57.5M160.5 32H99.5M160.5 19.5H125.5M115 3V10M105.5 3V10M94 3V10" stroke="#AAF0FF" stroke-width="5" stroke-linecap="round"/>
<path d="M161.209 8.8022V5C161.209 3.89543 160.313 3 159.209 3H118.5H109.314H99.3214H75.7913C66.6586 3 47.3617 3 43.2359 3C39.1101 3 36.3595 6.86813 35.5 8.8022V26.7256C35.5 30.9438 38.517 34.4233 42.3693 36.1418C50.1712 39.6221 51.4909 44.6524 50.9718 47.1612L41.2901 77.7839L39.5805 83.1913C38.3577 87.0588 41.2451 91 45.3014 91H67.1117C69.6172 91 71.8582 89.4434 72.737 87.0971C73.6773 84.5864 74.7216 81.8087 75.7913 78.9785C77.055 75.6348 78.3543 72.2177 79.5595 69.0806C82.3808 61.7368 84.6869 55.9276 84.8165 56.1868C85.0154 56.5846 89.0626 65.0629 92.4316 72.1245C93.7136 74.8117 97.3198 75.3215 99.2978 73.0961L101.194 70.9623C102.156 69.8806 102.182 68.2583 101.255 67.1465V67.1465C98.161 63.0205 95.8832 49.7399 95.1311 43.6154H159.209C160.313 43.6154 161.209 42.72 161.209 41.6154V38.1355M161.209 8.8022H170.168C171.273 8.8022 172.168 9.69763 172.168 10.8022V12.6703M161.209 8.8022V20.7289V33.9451V38.1355M172.168 12.6703H180.483C181.587 12.6703 182.483 13.5658 182.483 14.6703V16.8608M172.168 12.6703V33.9451M182.483 16.8608L198.815 20.1828C200.377 20.5006 201.5 21.8745 201.5 23.4689V23.4689C201.5 25.0632 200.377 26.4371 198.815 26.7549L182.483 30.0769M182.483 16.8608V30.0769M182.483 30.0769V31.9451C182.483 33.0496 181.587 33.9451 180.483 33.9451H172.168M172.168 33.9451V36.1355C172.168 37.2401 171.273 38.1355 170.168 38.1355H161.209" stroke="white" stroke-width="5" stroke-linecap="round"/>
</svg>
